<?xml version="1.0" encoding="UTF-8" standalone="no"?>
<!DOCTYPE svg PUBLIC "-//W3C//DTD SVG 1.1//EN" "http://www.w3.org/Graphics/SVG/1.1/DTD/svg11.dtd">
<svg width="100%" height="100%" viewBox="0 0 12863 5938" version="1.1" xmlns="http://www.w3.org/2000/svg" xmlns:xlink="http://www.w3.org/1999/xlink" xml:space="preserve" xmlns:serif="http://www.serif.com/" style="fill-rule:evenodd;clip-rule:evenodd;stroke-linecap:round;stroke-linejoin:round;stroke-miterlimit:1.5;">
    <g transform="matrix(4.166671,0,0,4.166754,-257.161294,-2334.778279)">
        <g transform="matrix(1,0,0,1,-89,569)">
            <g transform="matrix(2.299636,0,-0.442709,2.299636,784.931847,-3126.642603)">
                <path d="M249.603,1972.771L309.776,1972.771C278.575,1927.827 247.003,1883.255 215.06,1838.683L304.576,1717.966C286.375,1717.966 268.546,1717.595 249.975,1717.595C219.888,1759.567 188.688,1801.539 158.23,1843.883C188.688,1886.227 219.517,1930.056 249.603,1972.771ZM104,1972.771L156.373,1972.771L156.373,1717.966L104,1717.966L104,1972.771Z"/>
                <path d="M332.624,1973.143L380.457,1973.143L380.457,1785.432L332.624,1785.432L332.624,1973.143ZM332.261,1757.166L380.82,1757.166L380.82,1716.58L332.261,1716.58L332.261,1757.166Z"/>
                <rect x="420.018" y="1716.638" width="46.399" height="256.95"/>
                <path d="M585.82,1973.505C639.089,1973.505 676.776,1939.804 676.776,1878.2L676.776,1873.127C676.776,1812.61 644.162,1778.909 586.182,1778.909C532.913,1778.909 495.225,1813.335 495.225,1874.576L495.225,1879.65C495.225,1939.079 527.115,1973.505 585.82,1973.505ZM586.544,1938.717C562.627,1938.717 544.146,1926.396 544.146,1879.65L544.146,1871.677C544.146,1831.453 559.366,1814.059 585.457,1814.059C609.374,1814.059 627.855,1825.655 627.855,1873.127L627.855,1881.824C627.855,1921.323 612.635,1938.717 586.544,1938.717Z"/>
                <path d="M710.749,1972.771L868.237,1972.771L868.237,1932.285L763.493,1932.285L763.493,1717.966L710.749,1717.966L710.749,1972.771Z" style="fill:rgb(22,76,169);"/>
                <rect x="889.061" y="1787.254" width="44.306" height="185.256" style="fill:rgb(22,76,169);"/>
                <path d="M966.304,1971.693L1013.775,1971.693L1013.775,1828.192C1024.284,1824.206 1036.605,1818.77 1048.563,1818.77C1068.494,1818.77 1075.017,1826.38 1075.017,1843.412L1075.017,1971.693L1122.85,1971.693L1122.85,1835.802C1122.85,1833.265 1122.85,1831.091 1122.488,1828.554C1134.809,1823.481 1146.042,1818.77 1157.638,1818.77C1177.207,1818.77 1184.092,1826.38 1184.092,1843.412L1184.092,1971.693L1231.563,1971.693L1231.563,1831.453C1231.563,1794.853 1212.357,1780.358 1179.743,1780.358C1158.001,1780.358 1136.983,1788.331 1118.139,1801.376L1116.327,1801.376C1107.268,1786.881 1092.048,1780.358 1071.03,1780.358C1048.563,1780.358 1029.357,1789.418 1013.775,1801.376L1011.963,1801.376L1011.963,1783.982L966.304,1783.982L966.304,1971.693Z" style="fill:rgb(22,76,169);"/>
                <path d="M1316.722,1974.954C1340.276,1974.954 1356.221,1967.345 1364.555,1956.473L1366.729,1956.473L1370.353,1971.693L1409.127,1971.693L1409.127,1837.251C1409.127,1796.665 1383.399,1780.721 1339.189,1780.721C1313.098,1780.721 1292.08,1784.345 1273.599,1790.867L1273.599,1824.206C1285.92,1820.582 1302.589,1818.408 1321.07,1818.408C1351.872,1818.408 1362.019,1823.844 1362.019,1847.036L1362.019,1859.719L1320.708,1864.792C1282.658,1870.228 1258.017,1886.172 1258.017,1921.685C1258.017,1957.923 1282.296,1974.954 1316.722,1974.954ZM1331.579,1942.703C1315.997,1942.703 1304.763,1935.455 1304.763,1918.061C1304.763,1900.667 1313.46,1894.145 1331.217,1892.333L1362.019,1889.071L1362.019,1932.556C1356.221,1938.354 1343.537,1942.703 1331.579,1942.703Z" style="fill:rgb(22,76,169);"/>
            </g>
        </g>
        <g transform="matrix(1.016749,0,0,1.016749,-8.160105,-518.501834)">
            <path d="M1095.707,1875.761C1180.832,1875.167 1363.246,1828.618 1748.928,1753.925C1836.133,1737.036 1941.096,1717.361 2026.19,1698.315C2298.81,1637.295 2544.358,1578.436 2584.333,1552.409C2603.942,1539.642 2605.669,1550.579 2665.759,1482.751C2794.794,1337.101 3016.007,1062.978 3016.007,1062.978L3102.819,1061.093C3102.819,1061.093 2854.341,1526.836 2823.224,1562.074C2790.984,1598.585 2743.595,1644.196 2694.774,1669.545C2606.232,1715.517 2477.265,1761.339 2457.144,1769.569C2408.265,1789.563 2294.709,1831.548 2294.709,1831.548C2294.709,1831.548 2398.507,1862.816 2448.513,1897.251C2453.36,1900.589 2454.107,1916.507 2446.107,1923.767C2423.235,1944.525 2380.222,1964.616 2350.931,1969.072C2327.481,1972.64 2208.009,1957.08 2208.009,1957.08L2046.379,1938.246L1927.865,1981.972L1947.56,1880.642C1947.56,1880.642 2087.932,1830.231 2234.834,1781.148C2346.297,1743.907 2595.321,1655.953 2595.321,1655.953C2595.321,1655.953 2554.091,1627.769 2513.007,1633.458C2458.743,1640.973 2371.419,1660.958 2308.357,1676.548C2235.67,1694.516 2136.677,1716.484 2136.677,1716.484C2136.677,1716.484 2091.181,1727.53 1996.527,1745.697C1844.87,1774.805 1620.651,1819.509 1551.494,1829.929C1509.253,1836.294 1438.261,1847.694 1328.881,1865.628C1305.134,1869.521 1285.682,1871.121 1235.188,1878.49C1196.696,1884.107 1094.468,1875.8 1095.707,1875.761Z" style="fill:rgb(22,76,169);stroke:rgb(22,76,169);stroke-width:0.24px;"/>
            <path d="M1701.999,1965.948L1683.285,2063.178L1875.866,1997.133L1895.442,1897.201L1701.999,1965.948Z" style="fill:rgb(22,76,169);stroke:rgb(22,76,169);stroke-width:0.24px;"/>
        </g>
    </g>
</svg>
