<?xml version="1.0" encoding="UTF-8" standalone="no"?>
<!DOCTYPE svg PUBLIC "-//W3C//DTD SVG 1.1//EN" "http://www.w3.org/Graphics/SVG/1.1/DTD/svg11.dtd">
<svg width="100%" height="100%" viewBox="0 0 3085 1424" version="1.1" xmlns="http://www.w3.org/2000/svg" xmlns:xlink="http://www.w3.org/1999/xlink" xml:space="preserve" xmlns:serif="http://www.serif.com/" style="fill-rule:evenodd;clip-rule:evenodd;stroke-linejoin:round;stroke-miterlimit:2;">
    <g transform="matrix(1,0,0,1,-0.001009,-0)">
        <g transform="matrix(1,0,0,1,-79.730646,-378.86308)">
            <g transform="matrix(1,0,0,1.000022,18,-181.512445)">
                <g transform="matrix(1,0,0,1,-89,569)">
                    <g transform="matrix(2.299636,0,-0.442709,2.299636,784.931847,-3126.642603)">
                        <g transform="matrix(1,0,0,1,78,1988)">
                            <path d="M171.603,-15.229L231.776,-15.229C200.575,-60.173 169.003,-104.745 137.06,-149.317L226.576,-270.034C208.376,-270.034 190.547,-270.405 171.975,-270.405C141.889,-228.433 110.688,-186.461 80.23,-144.117C110.688,-101.773 141.517,-57.944 171.603,-15.229ZM26.001,-15.229L78.373,-15.229L78.373,-270.034L26.001,-270.034L26.001,-15.229Z" style="fill:white;"/>
                        </g>
                        <g transform="matrix(1,0,0,1,310.519,1988)">
                            <path d="M22.105,-14.857L69.939,-14.857L69.939,-202.568L22.105,-202.568L22.105,-14.857ZM21.743,-230.834L70.301,-230.834L70.301,-271.42L21.743,-271.42L21.743,-230.834Z" style="fill:white;"/>
                        </g>
                        <g transform="matrix(1,0,0,1,398.576,1988)">
                            <rect x="21.442" y="-271.362" width="46.399" height="256.95" style="fill:white;"/>
                        </g>
                        <g transform="matrix(1,0,0,1,483.992,1985.101)">
                            <path d="M101.828,-11.596C155.097,-11.596 192.784,-45.297 192.784,-106.901L192.784,-111.974C192.784,-172.491 160.17,-206.192 102.19,-206.192C48.921,-206.192 11.234,-171.766 11.234,-110.525L11.234,-105.451C11.234,-46.022 43.123,-11.596 101.828,-11.596ZM102.552,-46.384C78.636,-46.384 60.154,-58.705 60.154,-105.451L60.154,-113.424C60.154,-153.647 75.374,-171.041 101.465,-171.041C125.382,-171.041 143.863,-159.445 143.863,-111.974L143.863,-103.277C143.863,-63.778 128.643,-46.384 102.552,-46.384Z" style="fill:white;"/>
                        </g>
                        <g transform="matrix(1,0,0,1,684.748,1988)">
                            <path d="M26.001,-15.229L183.489,-15.229L183.489,-55.715L78.744,-55.715L78.744,-270.034L26.001,-270.034L26.001,-15.229Z" style="fill:rgb(0,140,215);"/>
                        </g>
                        <g transform="matrix(1,0,0,1,874.552,1983.651)">
                            <rect x="14.51" y="-196.397" width="44.306" height="185.256" style="fill:rgb(0,140,215);"/>
                        </g>
                        <g>
                            <g transform="matrix(1,0,0,1,945.286,1986.55)">
                                <path d="M21.018,-14.857L68.489,-14.857L68.489,-158.358C78.998,-162.344 91.319,-167.78 103.277,-167.78C123.208,-167.78 129.731,-160.17 129.731,-143.139L129.731,-14.857L177.564,-14.857L177.564,-150.748C177.564,-153.285 177.564,-155.459 177.202,-157.996C189.523,-163.069 200.756,-167.78 212.352,-167.78C231.921,-167.78 238.806,-160.17 238.806,-143.139L238.806,-14.857L286.277,-14.857L286.277,-155.097C286.277,-191.697 267.071,-206.192 234.457,-206.192C212.715,-206.192 191.697,-198.22 172.853,-185.174L171.041,-185.174C161.982,-199.669 146.762,-206.192 125.744,-206.192C103.277,-206.192 84.071,-197.133 68.489,-185.174L66.677,-185.174L66.677,-202.568L21.018,-202.568L21.018,-14.857Z" style="fill:rgb(0,140,215);"/>
                            </g>
                            <g transform="matrix(1,0,0,1,1247.508,1986.55)">
                                <path d="M69.214,-11.596C92.768,-11.596 108.713,-19.206 117.047,-30.077L119.222,-30.077L122.845,-14.857L161.62,-14.857L161.62,-149.299C161.62,-189.885 135.891,-205.83 91.681,-205.83C65.59,-205.83 44.572,-202.206 26.091,-195.683L26.091,-162.344C38.412,-165.968 55.081,-168.142 73.562,-168.142C104.364,-168.142 114.511,-162.707 114.511,-139.515L114.511,-126.832L73.2,-121.758C35.15,-116.323 10.509,-100.378 10.509,-64.865C10.509,-28.628 34.788,-11.596 69.214,-11.596ZM84.071,-43.847C68.489,-43.847 57.255,-51.095 57.255,-68.489C57.255,-85.883 65.952,-92.406 83.709,-94.218L114.511,-97.479L114.511,-53.994C108.713,-48.196 96.03,-43.847 84.071,-43.847Z" style="fill:rgb(0,140,215);"/>
                            </g>
                        </g>
                    </g>
                </g>
                <g transform="matrix(1.016749,0,0,1.016749,-8.160105,-518.501834)">
                    <path d="M1095.707,1875.761C1180.832,1875.167 1363.246,1828.618 1748.928,1753.925C1836.133,1737.036 1941.096,1717.361 2026.19,1698.315C2298.81,1637.295 2544.358,1578.436 2584.333,1552.409C2603.942,1539.642 2605.669,1550.579 2665.759,1482.751C2794.794,1337.101 3016.007,1062.978 3016.007,1062.978L3102.819,1061.093C3102.819,1061.093 2854.341,1526.836 2823.224,1562.074C2790.984,1598.585 2743.595,1644.196 2694.774,1669.545C2606.232,1715.517 2477.265,1761.339 2457.144,1769.569C2408.265,1789.563 2294.709,1831.548 2294.709,1831.548C2294.709,1831.548 2398.507,1862.816 2448.513,1897.251C2453.36,1900.589 2454.107,1916.507 2446.107,1923.767C2423.235,1944.525 2380.222,1964.616 2350.931,1969.072C2327.481,1972.64 2208.009,1957.08 2208.009,1957.08L2046.379,1938.246L1927.865,1981.972L1947.56,1880.642C1947.56,1880.642 2087.932,1830.231 2234.834,1781.148C2346.297,1743.907 2595.321,1655.953 2595.321,1655.953C2595.321,1655.953 2554.091,1627.769 2513.007,1633.458C2458.743,1640.973 2371.419,1660.958 2308.357,1676.548C2235.67,1694.516 2136.677,1716.484 2136.677,1716.484C2136.677,1716.484 2091.181,1727.53 1996.527,1745.697C1844.87,1774.805 1620.651,1819.509 1551.494,1829.929C1509.253,1836.294 1438.261,1847.694 1328.881,1865.628C1305.134,1869.521 1285.682,1871.121 1235.188,1878.49C1196.696,1884.107 1094.468,1875.8 1095.707,1875.761Z" style="fill:rgb(0,140,215);"/>
                    <path d="M1701.999,1965.948L1683.285,2063.178L1875.866,1997.133L1895.442,1897.201L1701.999,1965.948Z" style="fill:rgb(0,140,215);"/>
                </g>
            </g>
        </g>
    </g>
</svg>
